<?xml version="1.0" standalone="no"?>
<!DOCTYPE svg PUBLIC "-//W3C//DTD SVG 20010904//EN"
 "http://www.w3.org/TR/2001/REC-SVG-20010904/DTD/svg10.dtd">
<svg version="1.0" xmlns="http://www.w3.org/2000/svg"
 width="800.000000pt" height="800.000000pt" viewBox="0 0 800.000000 800.000000"
 preserveAspectRatio="xMidYMid meet">
<metadata>
Created by potrace 1.14, written by Peter Selinger 2001-2017
</metadata>
<g transform="translate(0.000000,800.000000) scale(0.100000,-0.100000)"
fill="#000000" stroke="none">
<path d="M1938 6805 c-2 -2 -31 -7 -64 -10 -32 -3 -69 -7 -80 -9 -12 -2 -39
-7 -60 -10 -22 -4 -55 -11 -74 -16 -19 -5 -46 -11 -60 -14 -151 -28 -435 -171
-574 -288 -127 -107 -268 -278 -341 -413 -36 -67 -105 -225 -98 -225 3 0 1 -6
-5 -13 -6 -7 -18 -38 -26 -68 -8 -30 -22 -79 -31 -109 -9 -30 -17 -62 -19 -70
-3 -8 -10 -37 -16 -65 -7 -27 -18 -69 -26 -92 -7 -23 -15 -52 -18 -65 -2 -13
-14 -57 -26 -98 -11 -41 -23 -83 -25 -93 -2 -10 -7 -27 -10 -37 -3 -10 -8 -27
-10 -37 -2 -10 -20 -79 -40 -153 -20 -74 -39 -142 -41 -150 -7 -31 -93 -346
-102 -377 -6 -18 -9 -33 -6 -33 3 0 0 -8 -5 -18 -6 -11 -12 -30 -15 -43 -3
-13 -14 -58 -26 -99 -27 -99 -24 -88 -60 -225 -17 -66 -34 -129 -37 -140 -36
-134 -52 -393 -31 -503 5 -26 11 -60 14 -77 16 -100 96 -285 162 -376 48 -68
174 -195 232 -236 76 -52 158 -97 228 -124 12 -5 32 -13 45 -19 32 -13 168
-52 192 -55 11 -1 27 -5 35 -9 8 -3 35 -8 60 -10 25 -2 77 -8 115 -12 39 -4
213 -7 388 -7 174 -1 317 -2 317 -4 0 -2 -14 -57 -31 -121 -17 -64 -32 -121
-33 -127 -1 -5 -4 -14 -7 -20 -5 -8 -21 -79 -21 -95 0 -3 -4 -12 -9 -21 -4 -9
-10 -27 -13 -40 -2 -13 -43 -168 -91 -344 -48 -176 -88 -327 -91 -335 -2 -8
-10 -39 -18 -68 l-14 -53 2151 4 c1184 2 2163 6 2177 9 14 3 43 9 65 12 100
16 158 28 195 41 22 8 41 14 43 13 7 -4 153 50 216 79 87 42 195 103 199 115
2 4 8 8 14 8 27 0 229 182 288 260 14 18 35 44 47 59 13 14 23 29 23 33 0 4 6
13 13 20 62 63 200 382 232 533 2 6 24 89 50 185 47 174 70 262 99 375 9 32
19 80 22 105 3 25 8 54 11 65 12 49 10 276 -3 357 -15 91 -53 217 -85 281 -11
20 -16 37 -12 38 5 1 63 2 130 3 67 0 124 3 127 6 2 3 21 68 41 145 42 165 31
122 100 375 30 113 57 214 59 225 3 11 5 20 6 20 1 0 3 7 5 15 11 43 133 495
140 520 2 8 18 65 34 125 16 61 36 134 44 163 9 28 13 52 11 52 -3 0 0 8 5 18
6 11 12 30 15 43 3 20 43 166 62 232 5 16 -49 17 -1046 17 l-1052 0 7 33 c4
17 13 51 21 74 7 23 16 52 18 65 3 13 9 38 15 56 5 18 10 36 11 40 0 4 7 30
15 57 8 28 16 59 18 70 2 11 9 40 16 65 7 25 15 52 17 60 2 8 13 47 24 85 11
39 22 79 25 90 2 11 9 38 15 60 6 22 12 47 14 55 2 8 9 33 15 55 6 22 11 43
12 47 1 4 11 44 24 88 l23 80 -2123 0 c-1167 0 -2124 -2 -2127 -5z"/>
</g>
</svg>
